<svg xmlns="http://www.w3.org/2000/svg" width="22" height="30" viewBox="0 0 22 30">
  <metadata><?xpacket begin="﻿" id="W5M0MpCehiHzreSzNTczkc9d"?>
<x:xmpmeta xmlns:x="adobe:ns:meta/" x:xmptk="Adobe XMP Core 5.6-c138 79.159824, 2016/09/14-01:09:01        ">
   <rdf:RDF xmlns:rdf="http://www.w3.org/1999/02/22-rdf-syntax-ns#">
      <rdf:Description rdf:about=""/>
   </rdf:RDF>
</x:xmpmeta>
                                                                                                    
                                                                                                    
                                                                                                    
                                                                                                    
                                                                                                    
                                                                                                    
                                                                                                    
                                                                                                    
                                                                                                    
                                                                                                    
                                                                                                    
                                                                                                    
                                                                                                    
                                                                                                    
                                                                                                    
                                                                                                    
                                                                                                    
                                                                                                    
                                                                                                    
                                                                                                    
                           
<?xpacket end="w"?></metadata>
<defs>
    <style>
      .cls-1 {
        fill: #db0100;
        fill-rule: evenodd;
      }
    </style>
  </defs>
  <path id="Хот" class="cls-1" d="M4,13s-2.667,3.667-2,7,2.333,6,4,7a40.033,40.033,0,0,0,4,2l2-2L8,26s-0.667-3,1-4,3.333-2.333,3-4-1-4-1-4a8.708,8.708,0,0,1,3,4,11.129,11.129,0,0,1,0,5l-1,6s3.667-1.667,5-5a16.621,16.621,0,0,0,0-12,7.213,7.213,0,0,0-4-2.469c-0.333,0-.333-2.865,0-4.531a13.334,13.334,0,0,1,1-3,9.363,9.363,0,0,0-5,4c-1.684,2.694-.879,5.638-2,9L7,18a1.43,1.43,0,0,1-2-1A20.974,20.974,0,0,1,4,13Z"/>
</svg>
