<svg width="105" height="60" viewBox="0 0 105 60" fill="none" xmlns="http://www.w3.org/2000/svg">
<path d="M35.3197 34.3328L47.4123 1.16426C47.6712 0.465705 48.3444 0 49.0953 0H54.2741C55.0251 0 55.6983 0.465705 55.9572 1.16426L62.845 20.077H65.5121C66.0559 20.077 66.5479 20.4134 66.7291 20.9308L67.7908 23.8544C67.8944 24.139 67.6873 24.4236 67.3765 24.4236H64.4246L65.072 26.1571H67.739C68.2828 26.1571 68.7748 26.4934 68.9561 27.0109L70.0177 29.9344C70.1212 30.219 69.9141 30.5036 69.6034 30.5036H66.6515L68.0238 34.281C68.1274 34.5656 67.9203 34.8502 67.6095 34.8502H62.2236C61.6799 34.8502 61.1879 34.5138 61.0066 33.9964L59.7378 30.4778H43.4505C43.1398 30.4778 42.9326 30.1673 43.0362 29.9085L44.0978 26.985C44.279 26.4676 44.771 26.1312 45.3148 26.1312H58.1323L57.485 24.3977H45.6514C45.3407 24.3977 45.1336 24.0873 45.2372 23.8285L46.2988 20.9049C46.48 20.3875 46.972 20.0512 47.5158 20.0512H55.8796L50.7784 6.02828C50.6489 5.6402 50.1052 5.6402 49.9498 6.02828L39.7735 34.0482C39.5922 34.5656 39.1002 34.9019 38.5565 34.9019H35.734C35.4233 34.9019 35.2162 34.5915 35.3197 34.3328Z" fill="url(#paint0_linear)"/>
<path d="M7.66463 50.0373V49.8821C7.69052 49.8821 7.7682 49.8821 7.89768 49.8562C8.02715 49.8303 8.15662 49.8045 8.28609 49.7527C8.41556 49.701 8.54503 49.6234 8.64862 49.5199C8.75214 49.4164 8.80397 49.2871 8.80397 49.1577C8.80397 49.0541 8.77809 48.899 8.72626 48.692C8.6745 48.485 8.57091 48.2004 8.46732 47.8899C8.36373 47.5795 8.23426 47.2172 8.10479 46.8291C7.97532 46.441 7.81997 46.0271 7.66463 45.6132H3.36622C3.21085 46.0271 3.05549 46.4152 2.90012 46.7774C2.74476 47.1396 2.5894 47.5277 2.45993 47.8899C2.22689 48.4591 2.12331 48.8731 2.12331 49.1059C2.12331 49.2353 2.1751 49.3646 2.25278 49.4422C2.33046 49.5458 2.45993 49.5975 2.5894 49.6752C2.71887 49.7268 2.87423 49.7786 3.02959 49.8045C3.18496 49.8303 3.34032 49.8562 3.46979 49.8821V50.0373H0V49.8562C0.284834 49.8303 0.51788 49.7527 0.725032 49.6234C0.932185 49.494 1.03576 49.4164 1.06166 49.3905C1.13934 49.3129 1.26881 49.1318 1.42417 48.8472C1.60543 48.5626 1.81258 48.1486 2.04563 47.6053C2.27868 47.0878 2.51172 46.5187 2.79656 45.8719C3.08138 45.2251 3.36622 44.5524 3.65105 43.8797C3.93589 43.207 4.24661 42.5084 4.53145 41.8099C4.81628 41.1113 5.10112 40.4645 5.36006 39.8695L5.20469 39.5072C5.38595 39.4296 5.56721 39.3262 5.72257 39.1968C5.87794 39.0674 6.00741 38.9639 6.13688 38.8345C6.26635 38.7052 6.34403 38.5758 6.44761 38.4723C6.52529 38.343 6.60297 38.2654 6.62887 38.1877H6.75834C7.09496 39.0674 7.40568 39.9212 7.71641 40.7232C8.02715 41.5253 8.31197 42.3015 8.57091 43.0259C8.85573 43.7762 9.11467 44.4747 9.37361 45.1733C9.63255 45.8719 9.89149 46.5446 10.1504 47.2172C10.2799 47.5536 10.3835 47.8382 10.4871 48.0451C10.5907 48.278 10.6942 48.5109 10.8237 48.7954C10.8496 48.8472 10.9014 48.9248 10.9791 49.0283C11.0567 49.1318 11.1603 49.2353 11.2898 49.3646C11.4193 49.4681 11.5746 49.5716 11.7559 49.6752C11.9371 49.7527 12.1443 49.8045 12.4033 49.8303V50.0115H7.66463V50.0373ZM5.56721 40.2834C5.48953 40.4128 5.41185 40.6457 5.28238 40.9561C5.1529 41.2666 4.99754 41.6288 4.81628 42.0427C4.63502 42.4826 4.42787 42.9483 4.22072 43.4916C3.98767 44.0349 3.75463 44.63 3.49569 45.2509H7.50926C7.328 44.7593 7.14675 44.2937 6.93959 43.8021C6.75834 43.3105 6.57708 42.8448 6.39582 42.4049C6.21456 41.9652 6.0592 41.5512 5.90383 41.189C5.77436 40.8267 5.67079 40.5163 5.56721 40.2834Z" fill="#1E252D"/>
<path d="M27.6294 50.0374V49.8563C28.0956 49.8304 28.484 49.7269 28.7947 49.5717C29.1054 49.3906 29.3126 49.2095 29.4161 48.9766C29.4679 48.8473 29.5197 48.6661 29.5715 48.4592C29.5974 48.2522 29.6233 48.0452 29.6491 47.8124C29.6751 47.1138 29.6751 46.4152 29.6751 45.7943C29.6751 45.1475 29.6751 44.4748 29.6751 43.8021V39.2227C29.3126 40.0247 29.0018 40.7492 28.6911 41.4219C28.4063 42.0945 28.0956 42.7414 27.8107 43.3623C27.5258 44.0091 27.2151 44.6559 26.9303 45.3028C26.6454 45.9754 26.3089 46.6998 25.9463 47.476C25.8946 47.5795 25.8169 47.7606 25.7133 47.9934C25.6097 48.2263 25.532 48.4592 25.4284 48.692C25.3249 48.9249 25.2472 49.1577 25.1436 49.3647C25.0659 49.5717 25.0142 49.701 24.9883 49.7528H24.8847C24.548 48.9508 24.2115 48.1746 23.8489 47.3725C23.5123 46.5964 23.1757 45.8202 22.8649 45.0958C22.5542 44.3713 22.2434 43.6986 21.9586 43.0518C21.6738 42.405 21.4149 41.8617 21.2077 41.3701C20.9747 40.8786 20.7934 40.4646 20.638 40.1282C20.4827 39.7919 20.405 39.5591 20.3274 39.4556C20.3274 40.1541 20.3274 40.8009 20.3274 41.3442C20.3274 41.8876 20.3274 42.4309 20.3014 42.9484C20.3014 43.4917 20.3014 44.035 20.3014 44.6301C20.3014 45.2251 20.3014 45.8978 20.3014 46.6998C20.3014 47.2173 20.3274 47.6313 20.3532 48.0193C20.3791 48.3815 20.4568 48.692 20.5863 48.9508C20.7158 49.2095 20.9229 49.3906 21.1818 49.5458C21.4407 49.701 21.8033 49.8045 22.2694 49.8563V50.0115H18.0486V49.8563C18.4371 49.7787 18.7219 49.6752 18.9808 49.52C19.2139 49.3647 19.3951 49.1836 19.5505 48.9249C19.68 48.6661 19.7835 48.3557 19.8612 47.9676C19.9389 47.5795 19.9648 47.1138 19.9648 46.5705C19.9907 46.1048 19.9907 45.5615 20.0166 44.9406C20.0166 44.3196 20.0425 43.6469 20.0425 42.9225C20.0425 42.612 20.0425 42.3533 20.0425 42.1204C20.0425 41.9135 20.0425 41.7064 20.0425 41.4995C20.0425 41.2925 20.0425 41.0855 20.0425 40.8786C20.0425 40.6715 20.0425 40.4128 20.0166 40.0765C20.0166 39.766 19.9389 39.5332 19.8353 39.352C19.7059 39.171 19.5764 39.0157 19.4211 38.9123C19.2656 38.8088 19.0844 38.7311 18.9032 38.6794C18.7219 38.6277 18.5665 38.6018 18.4371 38.5759V38.4465H21.881L25.7391 47.2173C26.2053 46.2083 26.6714 45.1734 27.1374 44.1644C27.5777 43.1553 27.992 42.2498 28.3544 41.4219C28.717 40.594 29.0018 39.9213 29.2348 39.3779C29.4679 38.8346 29.5974 38.5242 29.6232 38.4465H33.0672V38.6018C32.6269 38.6018 32.2904 38.7052 32.0573 38.8864C31.8242 39.0675 31.6689 39.2745 31.5912 39.5073C31.5135 39.6884 31.4877 39.9731 31.4617 40.3611C31.4358 40.7492 31.4358 41.1373 31.41 41.4995C31.41 42.0169 31.3841 42.5085 31.3841 43.0001C31.3841 43.4917 31.3841 43.9833 31.3841 44.4748C31.3841 45.044 31.3841 45.6391 31.3841 46.2083C31.3841 46.7775 31.3841 47.3725 31.41 48.0193C31.41 48.2264 31.4358 48.4333 31.4617 48.6403C31.4877 48.8473 31.5394 49.0025 31.5912 49.1319C31.5912 49.1577 31.643 49.2095 31.7207 49.2871C31.7984 49.3647 31.902 49.4423 32.0314 49.5458C32.1609 49.6493 32.3162 49.7269 32.5234 49.7787C32.7047 49.8563 32.9377 49.8822 33.1967 49.9081V50.0633H27.6294V50.0374Z" fill="#1E252D"/>
<path d="M41.3273 50.0373V49.8821C41.3532 49.8821 41.4309 49.8821 41.5604 49.8562C41.6899 49.8303 41.8193 49.8045 41.9488 49.7527C42.0783 49.701 42.2078 49.6234 42.3113 49.5199C42.4149 49.4164 42.4667 49.2871 42.4667 49.1577C42.4667 49.0541 42.4408 48.899 42.389 48.692C42.3372 48.485 42.2336 48.2004 42.13 47.8899C42.0264 47.5795 41.897 47.2172 41.7675 46.8291C41.638 46.441 41.4827 46.0271 41.3273 45.6132H37.0289C36.8736 46.0271 36.7182 46.4152 36.5628 46.7774C36.4075 47.1396 36.2521 47.5277 36.1227 47.8899C35.8896 48.4591 35.786 48.8731 35.786 49.1059C35.786 49.2353 35.8378 49.3646 35.9155 49.4422C35.9932 49.5458 36.1227 49.5975 36.2521 49.6752C36.3816 49.7268 36.5369 49.7786 36.6923 49.8045C36.8476 49.8303 37.0031 49.8562 37.1325 49.8821V50.0373H33.6886V49.8562C33.9734 49.8303 34.2065 49.7527 34.4137 49.6234C34.6208 49.494 34.7244 49.4164 34.7502 49.3905C34.8279 49.3129 34.9574 49.1318 35.1128 48.8472C35.294 48.5626 35.5012 48.1486 35.7342 47.6053C35.9673 47.0878 36.2003 46.5187 36.4852 45.8719C36.77 45.2251 37.0548 44.5524 37.3396 43.8797C37.6245 43.207 37.9352 42.5084 38.2201 41.8099C38.5049 41.1113 38.7897 40.4645 39.0486 39.8695L38.8933 39.5072C39.0746 39.4296 39.2558 39.3262 39.4112 39.1968C39.5665 39.0674 39.696 38.9639 39.8255 38.8345C39.9549 38.7052 40.0326 38.5758 40.1362 38.4723C40.2139 38.343 40.2657 38.2654 40.3175 38.1877H40.4469C40.7836 39.0674 41.0943 39.9212 41.4051 40.7232C41.7157 41.5253 42.0006 42.3015 42.2595 43.0259C42.5443 43.7762 42.8033 44.4747 43.0622 45.1733C43.3211 45.8719 43.5801 46.5446 43.839 47.2172C43.9685 47.5536 44.0721 47.8382 44.1757 48.0451C44.2793 48.278 44.3829 48.5109 44.5123 48.7954C44.5382 48.8472 44.59 48.9248 44.6677 49.0283C44.7453 49.1318 44.8489 49.2353 44.9784 49.3646C45.1079 49.4681 45.2632 49.5716 45.4445 49.6752C45.6257 49.7527 45.8329 49.8045 46.0919 49.8303V50.0115H41.3273V50.0373ZM39.2041 40.2834C39.1263 40.4128 39.0486 40.6457 38.9192 40.9561C38.7897 41.2666 38.6343 41.6288 38.4531 42.0427C38.2718 42.4826 38.0647 42.9483 37.8575 43.4916C37.6245 44.0349 37.3915 44.63 37.1325 45.2509H41.1461C40.9648 44.7593 40.7836 44.2937 40.5764 43.8021C40.3952 43.3105 40.2139 42.8448 40.0326 42.4049C39.8514 41.9652 39.696 41.5512 39.5406 41.189C39.4112 40.8267 39.3076 40.5163 39.2041 40.2834Z" fill="#1E252D"/>
<path d="M55.5428 50.0374C55.4392 49.9339 55.3875 49.8563 55.3357 49.8304C55.2839 49.7787 55.2321 49.7269 55.1803 49.6493C55.1285 49.5717 55.0508 49.4941 54.9732 49.3647C54.8955 49.2354 54.766 49.0542 54.5848 48.7955C54.3776 48.4851 54.1963 48.2263 54.041 47.9934C53.8856 47.7606 53.7302 47.5019 53.5749 47.2691C53.4195 47.0362 53.2382 46.8033 53.057 46.5446C52.8758 46.3118 52.6427 46.0271 52.3838 45.7426C52.1766 45.4839 51.9435 45.2769 51.6846 45.044C51.4256 44.837 51.1667 44.7077 50.8819 44.6301C50.6748 44.5783 50.5193 44.5783 50.4158 44.5783C50.3122 44.5783 50.1828 44.5783 50.0533 44.5525C50.0533 45.251 50.0533 45.8461 50.0533 46.3635C50.0533 46.881 50.0533 47.3208 50.0792 47.6571C50.0792 47.9934 50.1051 48.304 50.1051 48.5368C50.1051 48.7955 50.1828 48.9766 50.2864 49.1577C50.364 49.2871 50.5453 49.4423 50.7783 49.5976C51.0372 49.7528 51.3739 49.8304 51.814 49.8563V50.0115H46.6612V49.8563C46.9201 49.8045 47.1791 49.7528 47.438 49.6752C47.697 49.5976 47.8782 49.4682 48.0077 49.2871C48.0594 49.2354 48.1112 49.1319 48.1371 49.0025C48.163 48.8732 48.1889 48.7179 48.2148 48.5627C48.2407 48.4074 48.2407 48.2263 48.2666 48.0452C48.2666 47.8641 48.2925 47.683 48.2925 47.5019C48.2925 47.3466 48.2925 47.1397 48.2925 46.881C48.2925 46.6223 48.2925 46.3376 48.3184 46.0271C48.3184 45.7167 48.3184 45.4062 48.3184 45.0958C48.3184 44.7594 48.3184 44.4489 48.3184 44.1644V41.0338C48.3184 40.8527 48.3184 40.6457 48.3184 40.4387C48.3184 40.2318 48.2925 40.0506 48.2925 39.8695C48.2666 39.6884 48.2407 39.5332 48.2148 39.3779C48.1889 39.2227 48.1371 39.1192 48.0594 39.0675C47.9041 38.8864 47.7228 38.7829 47.5157 38.7311C47.3085 38.6794 47.0755 38.6277 46.7907 38.5759V38.4465C46.8683 38.4465 47.1014 38.4465 47.4639 38.4465C47.8264 38.4465 48.2407 38.4465 48.7068 38.4465C49.1729 38.4465 49.639 38.4465 50.1051 38.4465C50.5712 38.4465 50.9337 38.4465 51.2444 38.4465C51.9695 38.4465 52.6168 38.4724 53.1606 38.4983C53.7302 38.55 54.2222 38.6794 54.6883 38.9381C55.1544 39.1969 55.5428 39.5332 55.8276 39.9472C56.1125 40.3611 56.2679 40.9044 56.2679 41.5513C56.2679 41.9394 56.1902 42.3016 56.0607 42.612C55.9053 42.9225 55.7241 43.2071 55.491 43.4399C55.258 43.6727 54.9732 43.8798 54.6365 44.0608C54.3258 44.242 53.9633 44.3713 53.6266 44.5007V44.5525C53.8079 44.6559 53.9892 44.7853 54.1705 44.9664C54.3517 45.1475 54.507 45.3545 54.6624 45.5874C54.9473 46.0013 55.258 46.4411 55.5687 46.9069C55.9053 47.3725 56.1902 47.8124 56.4491 48.1746C56.8375 48.7438 57.2259 49.1319 57.6143 49.3906C58.0027 49.6493 58.4429 49.8045 58.9349 49.8822V50.0374H55.5428ZM53.9374 39.9989C53.6785 39.585 53.2642 39.2486 52.7722 38.9899C52.5132 38.8605 52.2543 38.7829 51.9695 38.7311C51.6846 38.6794 51.3739 38.6536 51.0632 38.6536C50.8301 38.6536 50.6488 38.6535 50.5193 38.6794C50.3899 38.6794 50.2604 38.7052 50.2086 38.7052C50.2086 38.757 50.1828 38.8346 50.1828 38.8864C50.1828 38.9381 50.1569 38.9898 50.1569 39.0675C50.1569 39.1451 50.1569 39.2486 50.1309 39.3779C50.1309 39.5073 50.1051 39.7143 50.1051 39.9472C50.1051 40.3352 50.0792 40.7492 50.0792 41.2149C50.0792 41.6806 50.0792 42.1463 50.0792 42.5862C50.0792 43.0259 50.0792 43.414 50.0792 43.7504C50.0792 44.0608 50.0792 44.2679 50.0792 44.3713C50.5193 44.3713 50.9337 44.3454 51.3221 44.3196C51.7105 44.2938 52.073 44.2161 52.4355 44.0867C52.7722 43.9833 53.0829 43.828 53.3159 43.6469C53.5749 43.4658 53.7561 43.2588 53.9115 43.0259C54.0669 42.7931 54.1705 42.5344 54.2481 42.2757C54.3258 42.0169 54.3517 41.7323 54.3517 41.4477C54.3517 40.9044 54.2222 40.4128 53.9374 39.9989Z" fill="#1E252D"/>
<path d="M68.1265 50.0374C68.0748 50.0115 68.023 49.9856 67.9712 49.9598C67.9194 49.9339 67.8676 49.8563 67.7899 49.7787C67.0908 48.9767 66.4434 48.2263 65.822 47.5019C65.2006 46.7775 64.5532 46.053 63.9059 45.3286C63.621 45.0181 63.4397 44.8112 63.3362 44.7594C63.2326 44.6818 63.1549 44.6559 63.0772 44.6559C62.9996 44.6559 62.9219 44.6818 62.896 44.7077C62.87 44.7335 62.8441 44.8112 62.8183 44.8888C62.8183 45.458 62.8183 45.9755 62.8183 46.4929C62.8183 46.9844 62.8183 47.4243 62.8441 47.7606C62.8441 48.0711 62.8701 48.3557 62.9219 48.6403C62.9477 48.899 63.0255 49.106 63.129 49.2613C63.2067 49.3647 63.3103 49.4682 63.4397 49.5458C63.5692 49.6235 63.6987 49.6752 63.854 49.7269C64.0094 49.7787 64.1648 49.8046 64.2943 49.8304C64.4496 49.8563 64.5532 49.8822 64.6827 49.8822V50.0374H59.5039V49.8822C59.7628 49.8304 60.0218 49.7787 60.2807 49.701C60.5396 49.6235 60.7209 49.4941 60.8503 49.3388C60.9021 49.2613 60.9539 49.1836 60.9798 49.0542C61.0057 48.9249 61.0316 48.7696 61.0575 48.6145C61.0834 48.4592 61.0834 48.2781 61.0834 48.0711C61.0834 47.89 61.0834 47.7089 61.0834 47.5278C61.0834 47.3725 61.0834 47.1656 61.0834 46.9069C61.0834 46.6481 61.0834 46.3635 61.0834 46.0789C61.0834 45.7684 61.0834 45.458 61.0834 45.1216C61.0834 44.7853 61.0834 44.4748 61.0834 44.1902V41.0596C61.0834 40.6457 61.0575 40.2835 61.0316 39.9213C61.0057 39.585 60.928 39.3262 60.8245 39.171C60.6691 38.9898 60.4878 38.8605 60.2807 38.757C60.0735 38.6794 59.8146 38.6018 59.5298 38.5759V38.4465H64.5273V38.6018C64.3202 38.6277 64.113 38.6535 63.9317 38.6794C63.7504 38.7052 63.5692 38.8088 63.4139 38.9123C63.2584 39.0416 63.129 39.2227 63.0255 39.4814C62.9219 39.7401 62.8701 40.0765 62.8441 40.5163C62.8441 40.7751 62.8183 41.0079 62.8183 41.2149C62.8183 41.4219 62.8183 41.6806 62.8183 41.9652C62.8183 42.2498 62.8183 42.5862 62.8183 42.9743C62.8183 43.3623 62.8183 43.8539 62.8183 44.4489C62.9996 44.3196 63.2844 44.1385 63.5951 43.8539C63.9317 43.5693 64.2683 43.2588 64.6309 42.8966C64.9934 42.5344 65.3559 42.1722 65.6925 41.81C66.055 41.4219 66.3657 41.1114 66.6247 40.8268C66.806 40.6199 66.9613 40.387 67.1167 40.1541C67.272 39.9213 67.3238 39.7143 67.3238 39.5332C67.3238 39.2227 67.2203 38.9899 67.0131 38.8605C66.806 38.7311 66.547 38.6277 66.2622 38.5759V38.4465H70.5865V38.6018C70.0427 38.6536 69.473 38.8864 68.9292 39.3004C68.3596 39.7143 67.7899 40.18 67.2203 40.7233C66.9872 40.9303 66.7541 41.1373 66.5211 41.396C66.2881 41.6289 66.055 41.8617 65.822 42.0945C65.5889 42.3274 65.3559 42.5603 65.1487 42.7672C64.9415 43.0001 64.7344 43.2071 64.5532 43.3882C64.6309 43.4917 64.838 43.7245 65.1487 44.0867C65.4594 44.4489 65.822 44.8629 66.2622 45.3545C66.7024 45.8461 67.1425 46.3635 67.6345 46.9069C68.1265 47.4502 68.5927 47.9934 69.0587 48.4851C69.1623 48.6145 69.2918 48.7438 69.4212 48.8732C69.5507 49.0025 69.7061 49.106 69.8355 49.2095C69.965 49.313 70.0686 49.3906 70.1722 49.4682C70.2758 49.5458 70.3275 49.5976 70.3534 49.5976C70.4829 49.6493 70.6901 49.701 70.9231 49.7528C71.1561 49.8046 71.441 49.8563 71.7258 49.8563V50.0115H68.1265V50.0374Z" fill="#1E252D"/>
<path d="M82.1614 50.0374H72.296V49.8822C72.5549 49.8304 72.8138 49.7787 73.0469 49.6752C73.28 49.5717 73.4612 49.4423 73.6165 49.2613C73.6684 49.2095 73.7201 49.106 73.746 48.9766C73.7719 48.8473 73.7978 48.7179 73.8237 48.5368C73.8496 48.3815 73.8755 48.2005 73.8755 48.0193C73.8755 47.8383 73.9014 47.6571 73.9014 47.5019C73.9014 47.3466 73.9014 47.1397 73.9014 46.881C73.9014 46.6223 73.9014 46.3376 73.9273 46.0271C73.9273 45.7167 73.9273 45.4062 73.9273 45.0958C73.9273 44.7594 73.9273 44.4489 73.9273 44.1644V41.0338C73.9273 40.8527 73.9273 40.6457 73.9273 40.4387C73.9273 40.2318 73.9014 40.0506 73.9014 39.8695C73.8755 39.6884 73.8496 39.5332 73.8237 39.3779C73.7978 39.2227 73.746 39.1192 73.6684 39.0675C73.513 38.8864 73.3317 38.7829 73.1505 38.7311C72.9692 38.6794 72.7361 38.6277 72.4513 38.6018V38.4465H81.3586L82.4466 41.1114L82.2912 41.189C81.4107 40.1024 80.6079 39.3779 79.8308 38.9899C79.6497 38.9123 79.3132 38.8346 78.8213 38.757C78.3294 38.7052 77.7333 38.6536 77.0086 38.6536C76.7756 38.6536 76.5426 38.6535 76.3095 38.6794C76.0765 38.7052 75.8952 38.7052 75.7917 38.7311C75.7658 38.9123 75.7398 39.2486 75.7398 39.7919C75.7139 40.3352 75.7139 40.9562 75.7139 41.6547C75.7139 42.0687 75.7139 42.405 75.7139 42.6896C75.7139 42.9743 75.7139 43.2071 75.7139 43.3623C75.7139 43.5434 75.7139 43.6727 75.7139 43.7763C75.7139 43.8539 75.7139 43.9315 75.7139 43.9574C75.7658 43.9574 75.8693 43.9574 76.0247 43.9574C76.1801 43.9574 76.3613 43.9574 76.5944 43.9315C76.8015 43.9315 77.0086 43.9057 77.2158 43.8798C77.4229 43.8539 77.6042 43.828 77.7333 43.8021C78.0442 43.7245 78.3294 43.6211 78.5361 43.4917C78.7436 43.3623 78.9247 43.2071 79.0544 43.0259C79.1834 42.8449 79.2876 42.6379 79.3653 42.3791C79.443 42.1463 79.5207 41.8617 79.572 41.5771H79.7531V46.6481H79.572C79.4943 46.3117 79.3653 45.9496 79.1834 45.5874C79.0024 45.2251 78.8213 44.9406 78.6402 44.7594C78.4584 44.6042 78.2517 44.4748 78.0185 44.3972C77.7854 44.2938 77.5007 44.242 77.164 44.2161C77.0086 44.2161 76.8792 44.1902 76.7497 44.1902C76.6461 44.1902 76.5426 44.1902 76.439 44.1902C76.3354 44.1902 76.2318 44.1902 76.1282 44.1902C76.0247 44.1902 75.8693 44.1902 75.7139 44.1902C75.6881 44.3454 75.6881 44.5525 75.6881 44.8629C75.6881 45.1475 75.6881 45.458 75.6881 45.7684C75.6881 45.8978 75.6881 46.0789 75.6881 46.26C75.6881 46.4411 75.6881 46.6223 75.6881 46.8033C75.6881 46.9844 75.6881 47.1397 75.6881 47.295C75.6881 47.4501 75.6881 47.5795 75.6881 47.683C75.6881 48.0193 75.7139 48.3557 75.7398 48.6661C75.7658 48.9767 75.8175 49.2095 75.9211 49.3388C76.0247 49.4941 76.2577 49.5976 76.6202 49.6493C76.9828 49.7269 77.3712 49.7528 77.811 49.7528C77.9929 49.7528 78.226 49.7528 78.5105 49.7269C78.7957 49.7269 79.1057 49.701 79.4166 49.6493C79.7531 49.5976 80.0904 49.52 80.3748 49.3906C80.66 49.2613 80.9444 49.0801 81.2032 48.8732C81.4628 48.6403 81.7216 48.3815 81.9803 48.0452C82.2391 47.7089 82.4979 47.3208 82.7575 46.8551L82.9386 46.9069L82.1614 50.0374Z" fill="#1E252D"/>
<path d="M95.5492 41.4738C95.4715 41.2926 95.3681 41.0857 95.2383 40.8787C95.1093 40.6717 95.0052 40.4648 94.8762 40.2836C94.7464 40.1025 94.6431 39.9215 94.5133 39.7662C94.3843 39.6109 94.2801 39.5075 94.2032 39.4298C93.9701 39.2229 93.7369 39.0676 93.4781 38.99C93.2186 38.9124 92.8821 38.8866 92.4679 38.8607C92.2612 38.8607 92.0793 38.8607 91.9239 38.8607C91.7685 38.8607 91.6138 38.8607 91.484 38.8607C91.3542 38.8607 91.1988 38.8607 91.0177 38.8607C90.8623 38.8607 90.6556 38.8607 90.4225 38.8607C90.4225 39.1194 90.4225 39.5075 90.4225 39.9473C90.4225 40.413 90.4225 40.9046 90.4225 41.3961C90.4225 41.9136 90.4225 42.4052 90.4225 42.8968C90.4225 43.3883 90.4225 43.7764 90.4225 44.1128V47.6831C90.4225 47.9936 90.4225 48.3041 90.4481 48.5887C90.4737 48.8733 90.5258 49.0803 90.6035 49.1838C90.759 49.4166 90.9921 49.5719 91.2765 49.6753C91.5617 49.753 91.8462 49.8306 92.0793 49.8565V50.0117H86.8492V49.8565C87.1336 49.8306 87.3924 49.7788 87.652 49.7012C87.9108 49.6236 88.1695 49.4425 88.4027 49.1579C88.454 49.1061 88.506 49.0026 88.5317 48.8992C88.5581 48.7698 88.5838 48.6404 88.6094 48.4852C88.6358 48.3299 88.6358 48.1489 88.6358 47.9677C88.6358 47.7867 88.6358 47.6055 88.6358 47.4244C88.6358 47.2692 88.6358 47.0881 88.6358 46.8294C88.6358 46.5707 88.6358 46.3119 88.6615 46.0014C88.6615 45.691 88.6615 45.3805 88.6615 45.07C88.6615 44.7596 88.6615 44.4491 88.6615 44.1386V38.8089C88.4283 38.8089 88.2473 38.8089 88.0662 38.8089C87.9108 38.8089 87.7553 38.8089 87.5999 38.8089C87.4701 38.8089 87.3147 38.8089 87.1593 38.8089C87.0046 38.8089 86.8228 38.8089 86.6161 38.8089C86.2019 38.8089 85.8646 38.8607 85.6058 38.9641C85.347 39.0417 85.0882 39.197 84.8807 39.404C84.803 39.4816 84.6997 39.5851 84.5699 39.7403C84.4665 39.8956 84.3375 40.0508 84.2077 40.2319C84.078 40.413 83.9746 40.5941 83.8456 40.8011C83.7415 41.008 83.6381 41.2151 83.586 41.3961L83.4306 41.3444L83.9233 38.2914C84.1821 38.3432 84.3888 38.3949 84.5963 38.4208C84.803 38.4467 85.1139 38.4726 85.5024 38.4985C85.9166 38.4985 86.2796 38.5243 86.5896 38.5243C86.9005 38.5243 87.2113 38.5243 87.5222 38.5243C87.8331 38.5243 88.1175 38.5243 88.4283 38.5243C88.7392 38.5243 89.1013 38.5243 89.5163 38.5243C89.9041 38.5243 90.267 38.5243 90.5779 38.5243C90.8887 38.5243 91.2252 38.5243 91.5097 38.5243C91.8205 38.5243 92.1314 38.5243 92.4422 38.4985C92.7531 38.4985 93.1409 38.4985 93.5294 38.4985C93.8924 38.4985 94.1768 38.4467 94.4099 38.4208C94.6431 38.3691 94.8762 38.3173 95.135 38.2397L95.6526 41.3703L95.5492 41.4738Z" fill="#1E252D"/>
<path d="M104.664 48.2523C104.457 48.6663 104.172 49.0026 103.783 49.2872C103.421 49.5719 102.98 49.8047 102.463 49.934C101.945 50.0634 101.375 50.1411 100.779 50.1411C100.262 50.1411 99.7956 50.1152 99.4326 50.0375C99.0448 49.9858 98.734 49.9081 98.5009 49.8047C98.2421 49.7012 98.061 49.6236 97.9312 49.546C97.8014 49.4684 97.7237 49.4425 97.6981 49.4425C97.6724 49.4425 97.5947 49.4942 97.4906 49.6236C97.3872 49.753 97.2839 49.8824 97.2062 49.9858H97.0507L96.9987 46.7776H97.1541C97.2582 47.0622 97.3872 47.3468 97.517 47.6314C97.6724 47.916 97.8279 48.1748 98.0089 48.4076C98.19 48.6404 98.3711 48.8733 98.5786 49.0544C98.7853 49.2355 98.9671 49.3649 99.1482 49.4684C99.3293 49.5719 99.5624 49.6494 99.8733 49.753C100.184 49.8565 100.469 49.9082 100.754 49.9082C101.557 49.9082 102.204 49.7012 102.696 49.2613C103.188 48.8216 103.447 48.2265 103.447 47.5021C103.447 47.1916 103.394 46.9328 103.291 46.7C103.188 46.4672 103.058 46.286 102.903 46.1049C102.747 45.9497 102.54 45.7945 102.307 45.6651C102.074 45.5358 101.841 45.4323 101.582 45.3546C101.323 45.2511 101.09 45.1735 100.909 45.1218C100.727 45.0442 100.546 44.9924 100.365 44.9406C100.21 44.889 100.029 44.8113 99.8476 44.7596C99.6658 44.7078 99.4591 44.6302 99.2003 44.5267C98.9151 44.4232 98.6563 44.268 98.3975 44.0869C98.1379 43.9058 97.9056 43.6729 97.7237 43.4142C97.5426 43.1555 97.3616 42.8709 97.2582 42.5862C97.1284 42.2758 97.0764 41.9653 97.0764 41.6031C97.0764 41.0339 97.1805 40.5165 97.3872 40.1025C97.5947 39.6886 97.8791 39.3263 98.2421 39.0676C98.6042 38.783 99.0184 38.5761 99.4847 38.4467C99.951 38.3173 100.443 38.2397 100.96 38.2397C101.452 38.2397 101.867 38.2914 102.204 38.3691C102.54 38.4467 102.825 38.5502 103.058 38.6278C103.265 38.7313 103.447 38.8089 103.55 38.8866C103.654 38.9641 103.732 39.0159 103.732 39.0159C103.757 39.0159 103.835 38.9382 103.938 38.8348C104.042 38.7054 104.146 38.5761 104.224 38.4467H104.405V41.422H104.224C104.094 41.0598 103.938 40.7235 103.732 40.3612C103.524 39.999 103.291 39.6886 103.032 39.4298C102.774 39.1453 102.463 38.9382 102.1 38.7572C101.763 38.5761 101.375 38.4985 100.96 38.4985C100.624 38.4985 100.313 38.5502 100.029 38.6536C99.7435 38.7572 99.4847 38.8866 99.2516 39.0935C99.0448 39.2746 98.863 39.5334 98.734 39.8179C98.6042 40.1025 98.5529 40.4389 98.5529 40.8011C98.5529 41.3703 98.734 41.836 99.0705 42.1723C99.407 42.5087 99.8476 42.7933 100.417 43.0002C100.624 43.0779 100.831 43.1555 101.013 43.2331C101.194 43.3107 101.375 43.3624 101.557 43.4142C101.738 43.466 101.919 43.5436 102.1 43.5953C102.282 43.647 102.488 43.7247 102.696 43.8023C103.421 44.061 103.991 44.4491 104.405 44.9665C104.819 45.484 105 46.1049 105 46.8811C104.974 47.3986 104.871 47.8384 104.664 48.2523Z" fill="#1E252D"/>
<path d="M27.3698 55.9364C27.1109 56.4022 26.8519 56.8937 26.6189 57.3594V59.3516H25.8162V57.3594C25.5572 56.8678 25.2983 56.4022 25.0652 55.9364C24.8063 55.4707 24.5732 54.9792 24.3143 54.5134H25.2206L25.8162 55.7036C25.8938 55.8588 25.9715 56.0141 26.0233 56.1693C26.101 56.3245 26.1527 56.4797 26.2304 56.635H26.2563L26.6965 55.6777L27.2662 54.4875H28.1725C27.8877 55.005 27.6287 55.4707 27.3698 55.9364Z" fill="#EF7D00"/>
<path d="M29.6232 55.8848C29.8821 55.8848 30.1152 55.9365 30.3223 56.04C30.5295 56.1435 30.6849 56.2729 30.8144 56.4798C30.892 56.6092 30.9697 56.7903 31.0215 56.9714C31.0733 57.1525 31.0733 57.3853 31.0733 57.6182C31.0733 57.8769 31.0473 58.1098 31.0215 58.2909C30.9697 58.472 30.9179 58.6531 30.8402 58.7825C30.7108 58.9894 30.5295 59.1706 30.2965 59.2741C30.0634 59.3775 29.8045 59.4293 29.5455 59.4293C29.2866 59.4293 29.0535 59.3775 28.8463 59.2999C28.6392 59.2223 28.4839 59.067 28.3544 58.886C28.1731 58.6014 28.0695 58.1874 28.0695 57.6441C28.0695 57.463 28.0695 57.2819 28.0955 57.1007C28.1214 56.9455 28.1731 56.7903 28.2249 56.6609C28.3544 56.4022 28.5356 56.2211 28.7687 56.0658C29.0276 55.9365 29.3125 55.8848 29.6232 55.8848ZM29.5973 56.5833C29.4678 56.5833 29.3383 56.6092 29.2348 56.6868C29.1312 56.7644 29.0535 56.842 29.0018 56.9714C28.9499 57.0749 28.9241 57.1784 28.9241 57.2819C28.8982 57.3853 28.8982 57.5147 28.8982 57.6441C28.8982 57.7734 28.8982 57.9028 28.9241 58.0063C28.9499 58.1098 28.9758 58.2133 29.0018 58.2909C29.0535 58.4202 29.1312 58.4979 29.2348 58.5755C29.3383 58.6531 29.4678 58.6789 29.5973 58.6789C29.7526 58.6789 29.8821 58.6273 29.9857 58.5496C30.1152 58.472 30.1929 58.3426 30.2446 58.1874C30.2705 58.1098 30.2965 58.0321 30.2965 57.9546C30.2965 57.8511 30.3223 57.7217 30.3223 57.5924C30.3223 57.3336 30.2965 57.1266 30.2188 56.9972C30.167 56.8679 30.0893 56.7644 29.9857 56.6868C29.8303 56.6351 29.7268 56.5833 29.5973 56.5833Z" fill="#EF7D00"/>
<path d="M32.6255 55.9104V57.9543C32.6255 58.1872 32.6773 58.3682 32.7809 58.4717C32.8844 58.5753 33.0398 58.6529 33.2728 58.6529C33.4541 58.6529 33.6095 58.6011 33.7389 58.4717C33.8684 58.3424 33.9202 58.1872 33.9202 57.9543V55.9104H34.697V59.3773H33.9202V59.0409H33.8943C33.7907 59.1703 33.6612 59.2738 33.48 59.3256C33.3246 59.3773 33.1693 59.429 33.0139 59.429C32.6514 59.429 32.3665 59.3256 32.1594 59.1186C31.9522 58.9116 31.8228 58.6011 31.8228 58.1872V55.9104H32.6255Z" fill="#EF7D00"/>
<path d="M37.0539 56.6348C36.8726 56.6348 36.7173 56.6865 36.5878 56.8159C36.4583 56.9453 36.4066 57.1005 36.4066 57.3334V59.4031H35.6298V55.9363H36.4066V56.3503H36.4325C36.6396 56.0397 36.9245 55.9104 37.261 55.9104C37.3905 55.9104 37.52 55.9363 37.6236 55.9622C37.7272 55.988 37.8307 56.0397 37.9343 56.0915L37.6495 56.8159C37.5459 56.7642 37.4682 56.7124 37.3646 56.6865C37.2352 56.6348 37.1574 56.6348 37.0539 56.6348Z" fill="#EF7D00"/>
<path d="M41.5594 55.8848C41.8183 55.8848 42.0514 55.9365 42.2586 56.04C42.4657 56.1435 42.621 56.2729 42.7505 56.4798C42.8282 56.6092 42.9059 56.7903 42.9577 56.9714C43.0094 57.1525 43.0094 57.3853 43.0094 57.6182C43.0094 57.8769 42.9836 58.1098 42.9577 58.2909C42.9059 58.472 42.8541 58.6531 42.7764 58.7825C42.647 58.9894 42.4657 59.1706 42.2326 59.2741C41.9996 59.3775 41.7407 59.4293 41.4817 59.4293C41.2228 59.4293 40.9897 59.3775 40.7826 59.2999C40.5755 59.2223 40.42 59.067 40.2906 58.886C40.1093 58.6014 40.0057 58.1874 40.0057 57.6441C40.0057 57.463 40.0057 57.2819 40.0316 57.1007C40.0576 56.9455 40.1093 56.7903 40.1611 56.6609C40.2906 56.4022 40.4719 56.2211 40.7049 56.0658C40.9639 55.9365 41.2487 55.8848 41.5594 55.8848ZM41.5335 56.5833C41.404 56.5833 41.2746 56.6092 41.171 56.6868C41.0674 56.7644 40.9897 56.842 40.9379 56.9714C40.8862 57.0749 40.8603 57.1784 40.8603 57.2819C40.8344 57.3853 40.8344 57.5147 40.8344 57.6441C40.8344 57.7734 40.8344 57.9028 40.8603 58.0063C40.8861 58.1098 40.912 58.2133 40.9379 58.2909C40.9897 58.4202 41.0674 58.4979 41.171 58.5755C41.2746 58.6531 41.404 58.6789 41.5335 58.6789C41.6889 58.6789 41.8183 58.6273 41.9219 58.5496C42.0514 58.472 42.1291 58.3426 42.1809 58.1874C42.2067 58.1098 42.2326 58.0321 42.2326 57.9546C42.2326 57.8511 42.2586 57.7217 42.2586 57.5924C42.2586 57.3336 42.2326 57.1266 42.155 56.9972C42.1031 56.8679 42.0255 56.7644 41.9219 56.6868C41.7924 56.6351 41.663 56.5833 41.5335 56.5833Z" fill="#EF7D00"/>
<path d="M45.8583 59.3775V57.3336C45.8583 57.1007 45.8066 56.9456 45.703 56.8162C45.5994 56.6868 45.444 56.635 45.211 56.635C45.0297 56.635 44.8485 56.6868 44.7449 56.8162C44.6154 56.9456 44.5636 57.1007 44.5636 57.3336V59.3775H43.7869V55.9106H44.5636V56.2729H44.5896C44.6932 56.1435 44.8485 56.04 45.0039 55.9882C45.1592 55.9106 45.3404 55.8848 45.4959 55.8848C45.8583 55.8848 46.1432 55.9882 46.3503 56.1952C46.5575 56.4022 46.6611 56.7126 46.6611 57.1007V59.3775H45.8583Z" fill="#EF7D00"/>
<path d="M48.4996 59.3773C48.3701 59.3773 48.2407 59.3515 48.1112 59.3257C48.0077 59.2998 47.9041 59.248 47.8005 59.1704C47.7228 59.0928 47.6452 59.0151 47.5933 58.8858C47.5416 58.7564 47.5157 58.6271 47.5157 58.4459V54.2805H48.3184V58.3166C48.3184 58.4459 48.3443 58.5236 48.3961 58.5753C48.4479 58.6271 48.5256 58.653 48.655 58.653H48.7845V59.3515H48.4996V59.3773Z" fill="#EF7D00"/>
<path d="M49.4313 55.2376V54.5132H50.2081V55.2376H49.4313ZM49.4313 59.3773V55.9103H50.2081V59.3773H49.4313Z" fill="#EF7D00"/>
<path d="M53.2381 59.3775V57.3336C53.2381 57.1007 53.1863 56.9456 53.0827 56.8162C52.9792 56.6868 52.8237 56.635 52.5908 56.635C52.4094 56.635 52.2541 56.6868 52.1246 56.8162C51.9952 56.9456 51.9434 57.1007 51.9434 57.3336V59.3775H51.1406V55.9106H51.9434V56.2729H51.9693C52.0729 56.1435 52.2282 56.04 52.3836 55.9882C52.5389 55.9106 52.7202 55.8848 52.8756 55.8848C53.2381 55.8848 53.5229 55.9882 53.73 56.1952C53.9372 56.4022 54.0408 56.7126 54.0408 57.1007V59.3775H53.2381Z" fill="#EF7D00"/>
<path d="M55.5417 57.8767C55.5417 57.9802 55.5675 58.0836 55.5935 58.1872C55.6194 58.2907 55.6711 58.3683 55.723 58.4459C55.7747 58.5235 55.8524 58.5753 55.9559 58.627C56.0595 58.6788 56.1631 58.7047 56.2926 58.7047C56.3962 58.7047 56.5257 58.6788 56.681 58.627C56.8364 58.5753 56.9917 58.4976 57.1212 58.3683C57.1989 58.4717 57.2766 58.5494 57.3542 58.6529C57.432 58.7564 57.5096 58.834 57.5873 58.9375C57.3801 59.1186 57.173 59.2479 56.9399 59.3256C56.7069 59.4032 56.4998 59.429 56.2667 59.429C56.0854 59.429 55.9042 59.4032 55.723 59.3515C55.5416 59.2997 55.3863 59.1962 55.231 59.0669C55.0756 58.9375 54.972 58.7564 54.8684 58.5235C54.7648 58.2907 54.739 58.0061 54.739 57.6439C54.739 57.3075 54.7907 57.0229 54.8684 56.79C54.972 56.5572 55.0756 56.3761 55.231 56.2467C55.3863 56.1173 55.5416 56.0139 55.723 55.9363C55.9042 55.8845 56.0854 55.8328 56.2667 55.8328C56.4998 55.8328 56.7069 55.8845 56.8882 55.9622C57.0694 56.0398 57.2248 56.1432 57.3542 56.2985C57.4837 56.4537 57.5873 56.609 57.6391 56.8159C57.7168 57.0229 57.7426 57.2558 57.7426 57.4886V57.8249H55.5417V57.8767ZM56.2149 56.609C56.0337 56.609 55.8783 56.6607 55.7488 56.79C55.6194 56.9194 55.5675 57.1005 55.5417 57.3334H56.8622C56.8364 57.1005 56.7846 56.9194 56.6551 56.79C56.5515 56.6607 56.3962 56.609 56.2149 56.609Z" fill="#EF7D00"/>
<path d="M63.1553 57.5922C63.1553 57.7992 63.1294 58.0062 63.1035 58.2132C63.0776 58.4201 63.0258 58.6271 62.9222 58.8082C62.8446 58.9893 62.7151 59.1187 62.5338 59.248C62.3785 59.3515 62.1454 59.4292 61.8865 59.4292C61.7311 59.4292 61.5758 59.4033 61.4204 59.3515C61.2651 59.2998 61.1356 59.1963 61.032 59.067H61.0061V59.4033H60.2033V54.3323H61.0061V56.2727H61.032C61.1615 56.1434 61.2909 56.0657 61.4463 55.9881C61.6016 55.9364 61.757 55.9105 61.8865 55.9105C62.1454 55.9105 62.3526 55.9622 62.5079 56.0657C62.6633 56.1693 62.7927 56.2986 62.8963 56.4797C62.974 56.6349 63.0517 56.8161 63.0776 57.023C63.1294 57.1783 63.1553 57.3852 63.1553 57.5922ZM62.3267 57.6439C62.3267 57.5146 62.3267 57.4111 62.3008 57.2817C62.3008 57.1524 62.249 57.0489 62.2231 56.9454C62.1714 56.8419 62.1195 56.7643 62.0159 56.7126C61.9383 56.6608 61.8088 56.609 61.6535 56.609C61.498 56.609 61.3945 56.6349 61.3168 56.7126C61.2392 56.7902 61.1615 56.8678 61.1096 56.9713C61.0579 57.0748 61.032 57.1783 61.032 57.3076C61.0061 57.437 61.0061 57.5405 61.0061 57.6439C61.0061 57.7475 61.0061 57.8769 61.032 57.9803C61.032 58.1097 61.0838 58.2131 61.1096 58.3166C61.1615 58.4201 61.2132 58.4978 61.3168 58.5753C61.3945 58.653 61.524 58.6788 61.6793 58.6788C61.8347 58.6788 61.9383 58.653 62.0419 58.5753C62.1195 58.4978 62.1972 58.4201 62.249 58.3166C62.3008 58.2131 62.3267 58.1097 62.3267 57.9803C62.3267 57.8769 62.3267 57.7475 62.3267 57.6439Z" fill="#EF7D00"/>
<path d="M65.3569 56.6348C65.1756 56.6348 65.0203 56.6865 64.8908 56.8159C64.7613 56.9453 64.7096 57.1005 64.7096 57.3334V59.4031H63.9327V55.9363H64.7096V56.3503H64.7354C64.9426 56.0397 65.2274 55.9104 65.564 55.9104C65.6935 55.9104 65.823 55.9363 65.9265 55.9622C66.0301 55.988 66.1337 56.0397 66.2373 56.0915L65.9524 56.8159C65.8489 56.7642 65.7712 56.7124 65.6676 56.6865C65.5381 56.6348 65.4605 56.6348 65.3569 56.6348Z" fill="#EF7D00"/>
<path d="M67.9195 55.8848C68.1784 55.8848 68.4115 55.9365 68.6186 56.04C68.8257 56.1435 68.9811 56.2729 69.1106 56.4798C69.1883 56.6092 69.266 56.7903 69.3177 56.9714C69.3696 57.1525 69.3695 57.3853 69.3695 57.6182C69.3695 57.8769 69.3436 58.1098 69.3177 58.2909C69.266 58.472 69.2142 58.6531 69.1365 58.7825C69.0071 58.9894 68.8257 59.1706 68.5927 59.2741C68.3597 59.3775 68.1008 59.4293 67.8418 59.4293C67.5829 59.4293 67.3498 59.3775 67.1426 59.2999C66.9355 59.2223 66.7802 59.067 66.6507 58.886C66.4694 58.6014 66.3658 58.1874 66.3658 57.6441C66.3658 57.463 66.3658 57.2819 66.3918 57.1007C66.4177 56.9455 66.4694 56.7903 66.5212 56.6609C66.6507 56.4022 66.8319 56.2211 67.065 56.0658C67.3239 55.9365 67.6088 55.8848 67.9195 55.8848ZM67.8936 56.5833C67.7641 56.5833 67.6346 56.6092 67.531 56.6868C67.4275 56.7644 67.3498 56.842 67.2721 56.9714C67.2203 57.0749 67.1945 57.1784 67.1945 57.2819C67.1686 57.3853 67.1686 57.5147 67.1686 57.6441C67.1686 57.7734 67.1686 57.9028 67.1945 58.0063C67.2203 58.1098 67.2462 58.2133 67.2721 58.2909C67.3239 58.4202 67.4016 58.4979 67.5052 58.5755C67.6088 58.6531 67.7382 58.6789 67.8677 58.6789C68.023 58.6789 68.1525 58.6273 68.2561 58.5496C68.3856 58.472 68.4633 58.3426 68.5151 58.1874C68.5409 58.1098 68.5668 58.0321 68.5668 57.9546C68.5668 57.8511 68.5927 57.7217 68.5927 57.5924C68.5927 57.3336 68.5668 57.1266 68.4892 56.9972C68.4373 56.8679 68.3597 56.7644 68.2561 56.6868C68.1525 56.6351 68.0231 56.5833 67.8936 56.5833Z" fill="#EF7D00"/>
<path d="M72.4515 59.3773C72.2702 59.1186 72.1149 58.8599 71.9336 58.6012C71.7782 58.3424 71.597 58.0837 71.4158 57.825C71.3381 57.9027 71.2603 58.0061 71.1827 58.0837C71.105 58.1614 71.0273 58.2649 70.9496 58.3424V59.3515H70.1469V54.2805H70.9496V57.3335H70.9755L71.6487 56.5573L72.2443 55.9105H73.2024L71.9595 57.2558C72.1925 57.6181 72.4256 57.9544 72.6586 58.3166C72.8917 58.6788 73.1248 59.0151 73.3577 59.3773H72.4515Z" fill="#EF7D00"/>
<path d="M74.3932 57.8767C74.3932 57.9802 74.4191 58.0836 74.4451 58.1872C74.4709 58.2907 74.5227 58.3683 74.5745 58.4459C74.6263 58.5235 74.704 58.5753 74.8075 58.627C74.9111 58.6788 75.0147 58.7047 75.1442 58.7047C75.2478 58.7047 75.3772 58.6788 75.5326 58.627C75.6879 58.5753 75.8433 58.4976 75.9727 58.3683C76.0504 58.4717 76.1282 58.5494 76.2058 58.6529C76.2835 58.7564 76.3611 58.834 76.4389 58.9375C76.2317 59.1186 76.0246 59.2479 75.7915 59.3256C75.5584 59.4032 75.3513 59.429 75.1183 59.429C74.937 59.429 74.7558 59.4032 74.5745 59.3515C74.3932 59.2997 74.2379 59.1962 74.0825 59.0669C73.9272 58.9375 73.8236 58.7564 73.72 58.5235C73.6424 58.2907 73.5905 58.0061 73.5905 57.6439C73.5905 57.3075 73.6424 57.0229 73.72 56.79C73.8236 56.5572 73.9272 56.3761 74.0825 56.2467C74.2379 56.1173 74.3932 56.0139 74.5745 55.9363C74.7558 55.8845 74.937 55.8328 75.1183 55.8328C75.3513 55.8328 75.5584 55.8845 75.7398 55.9622C75.921 56.0398 76.0763 56.1432 76.2058 56.2985C76.3353 56.4537 76.4389 56.609 76.4906 56.8159C76.5683 57.0229 76.5942 57.2558 76.5942 57.4886V57.8249H74.3932V57.8767ZM75.0664 56.609C74.8852 56.609 74.7299 56.6607 74.6004 56.79C74.4709 56.9194 74.4192 57.1005 74.3932 57.3334H75.7138C75.6879 57.1005 75.6362 56.9194 75.5067 56.79C75.4031 56.6607 75.2477 56.609 75.0664 56.609Z" fill="#EF7D00"/>
<path d="M78.7957 56.6348C78.6146 56.6348 78.4592 56.6865 78.3294 56.8159C78.2004 56.9453 78.1483 57.1005 78.1483 57.3334V59.4031H77.3458V55.9363H78.1227V56.3503H78.1483C78.3558 56.0397 78.6403 55.9104 78.9768 55.9104C79.1065 55.9104 79.2363 55.9363 79.3397 55.9622C79.443 55.988 79.5472 56.0397 79.6505 56.0915L79.3653 56.8159C79.262 56.7642 79.1843 56.7124 79.0809 56.6865C78.9768 56.6348 78.8734 56.6348 78.7957 56.6348Z" fill="#EF7D00"/>
<path d="M16.7281 45.3803C16.7281 46.1047 16.1325 46.6998 15.4075 46.6998C14.6824 46.6998 14.0869 46.1047 14.0869 45.3803C14.0869 44.6558 14.6824 44.0608 15.4075 44.0608C16.1325 44.0867 16.7281 44.6558 16.7281 45.3803Z" fill="#1E252D"/>
<defs>
<linearGradient id="paint0_linear" x1="52.6647" y1="0.286175" x2="52.6647" y2="35.6024" gradientUnits="userSpaceOnUse">
<stop stop-color="#F39200"/>
<stop offset="1" stop-color="#F07E00"/>
</linearGradient>
</defs>
</svg>
