<svg xmlns="http://www.w3.org/2000/svg" width="22" height="20" viewBox="0 0 22 20"><defs><style>.cls-1{fill:#f3473e;fill-rule:evenodd}</style></defs><path id="Фигура_2" data-name="Фигура 2" class="cls-1" d="M811.767 1703.64l-6.286-6.4a.756.756 0 0 0-1.105 0 .769.769 0 0 0-.233.56v3.2h-2.75q-8.754 0-10.743 5.04a11.54 11.54 0 0 0-.65 4.16 15.28 15.28 0 0 0 1.559 5.64c.025.05.067.15.129.3s.117.26.166.37a1.587 1.587 0 0 0 .159.28.421.421 0 0 0 .344.21.342.342 0 0 0 .289-.13.452.452 0 0 0 .1-.31 2.637 2.637 0 0 0-.031-.33 2.856 2.856 0 0 1-.031-.29c-.041-.57-.061-1.08-.061-1.54a10.775 10.775 0 0 1 .215-2.26 6.736 6.736 0 0 1 .6-1.73 4.41 4.41 0 0 1 .983-1.27 5.675 5.675 0 0 1 1.3-.86 6.727 6.727 0 0 1 1.633-.54 15.116 15.116 0 0 1 1.89-.26c.635-.05 1.353-.08 2.155-.08h2.75v3.2a.769.769 0 0 0 .233.56.756.756 0 0 0 1.105 0l6.286-6.4a.753.753 0 0 0 .233-.56.769.769 0 0 0-.239-.56z" transform="translate(-790 -1697)"/></svg>